<?xml version="1.0" encoding="utf-8"?>
<!-- Generator: Adobe Illustrator 14.0.0, SVG Export Plug-In . SVG Version: 6.00 Build 43363)  -->
<!DOCTYPE svg PUBLIC "-//W3C//DTD SVG 1.1//EN" "http://www.w3.org/Graphics/SVG/1.1/DTD/svg11.dtd">
<svg version="1.1" id="Layer_1" xmlns="http://www.w3.org/2000/svg" xmlns:xlink="http://www.w3.org/1999/xlink" x="0px" y="0px"
	 width="30px" height="40px" viewBox="235 230 30 40" enable-background="new 235 230 30 40" xml:space="preserve">
<g>
	<g>
		<path fill="#FF9800" d="M250,230c-7.988,0-14.486,6.499-14.486,14.486c0,9.913,12.964,24.467,13.516,25.081
			c0.518,0.577,1.423,0.576,1.941,0c0.552-0.614,13.516-15.168,13.516-25.081C264.487,236.499,257.989,230,250,230z M250,251.775
			c-4.019,0-7.288-3.27-7.288-7.289c0-4.019,3.27-7.288,7.288-7.288c4.02,0,7.289,3.27,7.289,7.288
			C257.289,248.505,254.02,251.775,250,251.775z"/>
	</g>
</g>
</svg>
